<?xml version="1.0" ?><svg id="katman_1" style="enable-background:new 0 0 512 512;" version="1.1" viewBox="0 0 512 512" xml:space="preserve" xmlns="http://www.w3.org/2000/svg" xmlns:xlink="http://www.w3.org/1999/xlink"><style type="text/css">
	.st0{fill:#34B297;}
	.st1{fill:#15A085;}
	.st2{fill:#FFFFFF;}
</style><g><g><circle class="st0" cx="256" cy="256" r="250"/></g><path class="st1" d="M503.1,294.4c-0.2-0.3-0.4-0.5-0.7-0.8c-28.7-28.6-57.2-57.2-85.9-85.8c-7-7-13.8-14.2-21.4-20.6   c-40-33.5-86.1-50.1-138.1-50.7c-6.9,0.1-13.8,0.4-20.6,1c-8.8,0.8-17.4,2.1-26,4.1c-29.2,6.6-56,18.6-80.1,36.4   c-6.8,5-13.4,10.4-19.5,16.3c-5.2,5.1-5.4,12.7-0.5,18.1c0.5,0.6,1.1,1.1,1.7,1.7c39.9,39.9,79.9,79.9,119.8,119.8   c0.3,0.3,0.5,0.6,0.9,0.8c1.1,0.8,1.2,1.6,0.5,2.8c-1.8,3.2-2.7,6.6-2.9,10.3c-0.5,8.5,2.3,15.6,8.3,21.6   c38.5,38.4,76.9,76.9,115.4,115.4c0.4,0.4,0.7,0.7,1,0.9C432.5,452.2,489.8,380.5,503.1,294.4z"/><g><path class="st2" d="M303.2,305.8c-2.9,0-5.8-1-8.2-3l0,0c-10.9-9.2-24.7-14.2-39-14.2c-14.3,0-28.2,5-39,14.2    c-5.1,4.3-12.4,3.9-17.1-0.7L175.8,278c-2.5-2.5-3.8-5.9-3.7-9.3c0.1-3.5,1.6-6.8,4.2-9.1c21.9-19.5,50.2-30.3,79.7-30.3    s57.8,10.7,79.7,30.3c2.6,2.3,4.1,5.6,4.2,9.1c0.1,3.5-1.3,6.9-3.7,9.3l-24.1,24.1C309.7,304.6,306.4,305.8,303.2,305.8z M256,276    C256,276,256,276,256,276c17.3,0,34,6.1,47.2,17.2l0,0l0,0l24.1-24.1c-19.6-17.4-44.9-27-71.3-27s-51.7,9.6-71.3,27.1l24.1,24.1    C222,282.1,238.7,276,256,276z"/><path class="st2" d="M256,375.9c-6.8,0-13.7-2.6-18.9-7.8c-10.4-10.4-10.4-27.3,0-37.7c5-5,11.7-7.8,18.9-7.8    c7.1,0,13.8,2.8,18.9,7.8l0,0c0,0,0,0,0,0c5,5,7.8,11.7,7.8,18.9c0,7.1-2.8,13.8-7.8,18.9C269.7,373.3,262.8,375.9,256,375.9z     M256,335.3c-3.7,0-7.3,1.5-9.9,4.1c-5.5,5.5-5.5,14.3,0,19.8s14.3,5.5,19.8,0c2.6-2.6,4.1-6.2,4.1-9.9c0-3.7-1.5-7.3-4.1-9.9    c0,0,0,0,0,0C263.3,336.7,259.7,335.3,256,335.3z"/><path class="st2" d="M369.3,239.7c-3.1,0-6.2-1.1-8.6-3.4c-28.5-26.4-65.7-41-104.7-41c-39,0-76.2,14.6-104.7,41    c-5,4.6-12.7,4.5-17.6-0.3l-24-24c-2.4-2.4-3.8-5.7-3.7-9.2c0.1-3.5,1.5-6.7,4-9.1c81.9-76.9,210.1-76.9,292,0l0,0    c2.5,2.4,4,5.6,4,9.1c0.1,3.5-1.3,6.7-3.7,9.2l-24,24C375.8,238.5,372.5,239.7,369.3,239.7z M256,182.7    c42.2,0,82.5,15.8,113.3,44.4l24-24.1l0,0c-77-72.3-197.6-72.3-274.6,0l24,24.1C173.5,198.4,213.8,182.7,256,182.7z"/></g></g></svg>